<svg width="30" height="30" viewBox="0 0 30 30" fill="none" xmlns="http://www.w3.org/2000/svg">
<path d="M15 30C6.72558 30 0 23.2744 0 15C0 6.72558 6.72558 0 15 0C23.2744 0 30 6.72558 30 15C30 23.2744 23.2744 30 15 30ZM15 2.09302C7.88372 2.09302 2.09302 7.88372 2.09302 15C2.09302 22.1163 7.88372 27.907 15 27.907C22.1163 27.907 27.907 22.1163 27.907 15C27.907 7.88372 22.1163 2.09302 15 2.09302Z" fill="#292D32"/>
<path d="M20.1762 20.4833C19.9948 20.4833 19.8134 20.4415 19.6459 20.3298L15.3203 17.7484C14.2459 17.1066 13.4506 15.6973 13.4506 14.4554V8.7345C13.4506 8.16241 13.925 7.68799 14.4971 7.68799C15.0692 7.68799 15.5436 8.16241 15.5436 8.7345V14.4554C15.5436 14.9577 15.9622 15.6973 16.3948 15.9484L20.7203 18.5298C21.2227 18.8229 21.3762 19.4647 21.0831 19.967C20.8738 20.3019 20.525 20.4833 20.1762 20.4833Z" fill="#292D32"/>
</svg>
