<svg width="43" height="48" viewBox="0 0 43 48" fill="none" xmlns="http://www.w3.org/2000/svg">
<path d="M15.0673 1.148L14.8633 1.692L14.2513 1.556L14.3873 1.08L14.7953 0.603998L15.0673 1.148ZM17.3793 1.012C17.606 1.148 17.7193 1.30667 17.7193 1.488C17.7647 1.624 17.7647 1.85066 17.7193 2.168C17.5833 2.48533 17.2887 2.66666 16.8353 2.712C16.382 2.712 16.0873 2.55333 15.9513 2.236C15.8607 1.964 15.7927 1.76 15.7473 1.624C15.7473 1.44266 15.8607 1.26133 16.0873 1.08C16.4953 0.717331 16.926 0.694665 17.3793 1.012ZM2.55534 1.692C2.60068 2.00933 2.46468 2.236 2.14734 2.372C1.83001 2.55333 1.55801 2.53066 1.33134 2.304C1.01401 1.94133 0.946011 1.624 1.12734 1.352C1.30868 0.989332 1.60334 0.830666 2.01134 0.875999C2.23801 0.921331 2.37401 1.012 2.41934 1.148C2.46468 1.284 2.51001 1.46533 2.55534 1.692ZM24.4513 1.08C24.7233 1.216 24.8367 1.488 24.7913 1.896C24.746 2.168 24.5647 2.34933 24.2473 2.44C23.9753 2.48533 23.7713 2.53066 23.6353 2.576C23.4993 2.62133 23.3633 2.53066 23.2273 2.304C23.0913 2.07733 23.0687 1.91866 23.1593 1.828C23.2953 1.692 23.454 1.53333 23.6353 1.352C23.9073 1.03466 24.1793 0.943998 24.4513 1.08ZM8.94734 1.692C9.08334 1.964 9.08334 2.19067 8.94734 2.372C8.81134 2.55333 8.67534 2.68933 8.53934 2.78C8.44868 2.82533 8.31268 2.80266 8.13134 2.712C7.90468 2.62133 7.72334 2.53066 7.58734 2.44C7.45134 2.304 7.40601 2.1 7.45134 1.828C7.49668 1.556 7.56468 1.39733 7.65534 1.352C7.79134 1.26133 7.99534 1.17066 8.26734 1.08C8.49401 1.03466 8.63001 1.08 8.67534 1.216C8.72068 1.352 8.81134 1.51066 8.94734 1.692ZM5.88734 1.556C6.38601 1.78266 6.63534 2.05467 6.63534 2.372C6.68068 2.68933 6.68068 3.12 6.63534 3.664C6.59001 4.16266 6.49934 4.52533 6.36334 4.752C6.22734 4.97866 5.93268 5.13733 5.47934 5.228C5.02601 5.364 4.70868 5.31866 4.52734 5.092C4.39134 4.86533 4.21001 4.57066 3.98334 4.208C3.71134 3.75466 3.46201 3.392 3.23534 3.12C3.05401 2.848 3.14468 2.53067 3.50734 2.168C3.91534 1.66933 4.27801 1.39733 4.59534 1.352C4.91268 1.26133 5.34334 1.32933 5.88734 1.556ZM22.1393 1.42L22.0033 2.032L21.3913 2.1L20.9833 1.624L21.5273 1.352L22.1393 1.42ZM29.6193 2.576C29.71 2.93866 29.574 3.23333 29.2113 3.46C28.758 3.732 28.3953 3.75466 28.1233 3.528C27.7153 3.21067 27.602 2.848 27.7833 2.44C27.9193 2.12266 28.0327 1.896 28.1233 1.76C28.2593 1.624 28.486 1.556 28.8033 1.556C29.1207 1.556 29.302 1.64666 29.3473 1.828C29.438 2.00933 29.5287 2.25867 29.6193 2.576ZM19.8273 1.76C20.1447 1.896 20.2807 2.1 20.2353 2.372C20.19 2.644 20.1673 2.848 20.1673 2.984C20.1673 3.12 20.0313 3.23333 19.7593 3.324C19.4873 3.36933 19.2833 3.34666 19.1473 3.256C19.0567 3.16533 18.9433 2.984 18.8073 2.712C18.6713 2.53067 18.626 2.39466 18.6713 2.304C18.762 2.168 18.898 2.00933 19.0793 1.828C19.2607 1.64666 19.51 1.624 19.8273 1.76ZM11.8713 1.828L12.5513 2.44L12.0753 3.052L11.3273 3.12V2.372L11.8713 1.828ZM32.2713 2.304L32.4073 2.984L32.2033 3.732L31.5233 3.256L31.3873 2.44L32.2713 2.304ZM14.9993 2.712L15.0673 3.324L14.4553 3.052L14.2513 2.644L14.9993 2.712ZM33.9713 3.12L34.0393 3.664L33.4953 3.732L33.0873 3.324L33.4953 2.78L33.9713 3.12ZM25.8793 2.78L26.2193 3.256L25.8793 3.664L25.2673 3.596L25.3353 2.984L25.8793 2.78ZM22.3433 3.188C22.6153 3.27867 22.7967 3.36933 22.8873 3.46C23.0233 3.55066 23.114 3.732 23.1593 4.004C23.1593 4.276 23.114 4.48 23.0233 4.616C22.9327 4.70666 22.7513 4.79733 22.4793 4.888C22.026 5.06933 21.6633 5.00133 21.3913 4.684C21.21 4.45733 21.0967 4.276 21.0513 4.14C21.006 3.95866 21.0513 3.75466 21.1873 3.528C21.3687 3.256 21.5273 3.12 21.6633 3.12C21.8447 3.12 22.0713 3.14266 22.3433 3.188ZM2.07934 3.46V4.276L1.46734 4.616L0.923344 4.14L1.12734 3.256L2.07934 3.46ZM18.6713 3.664L18.5353 4.344H17.8553L17.5833 3.732L18.1273 3.528L18.6713 3.664ZM9.55934 3.596L10.1713 4.412L9.35534 5.16L8.53934 4.752L8.74334 3.936L9.55934 3.596ZM13.7753 3.596L13.7073 4.276L13.2313 4.548L12.6193 4.14L13.0953 3.732L13.7753 3.596ZM15.6793 3.8L15.8833 4.48L15.5433 4.956L14.8633 4.888L14.7953 4.004L15.6793 3.8ZM27.9193 4.684L27.7153 5.296H26.8313L27.0353 4.48L27.5793 4.14L27.9193 4.684ZM31.4553 4.276L31.9993 4.548L31.7273 5.296L30.9793 5.16V4.48L31.4553 4.276ZM36.8273 5.092L36.3513 5.636H35.7393L35.5353 4.956L36.2153 4.548L36.8273 5.092ZM24.2473 5.432L24.1113 5.976H23.4313V5.296L23.8393 5.024L24.2473 5.432ZM34.9913 5.432C35.082 5.704 35.082 5.908 34.9913 6.044C34.9007 6.18 34.742 6.33867 34.5153 6.52C34.2887 6.74667 34.1073 6.928 33.9713 7.064C33.8353 7.15466 33.6313 7.132 33.3593 6.996C33.0873 6.81466 32.9513 6.63333 32.9513 6.452C32.9513 6.27067 32.974 6.02133 33.0193 5.704C33.11 5.34133 33.4047 5.13733 33.9033 5.092C34.1753 5.04666 34.3793 5.04666 34.5153 5.092C34.6967 5.092 34.8553 5.20533 34.9913 5.432ZM20.6433 5.16L20.7113 5.84L20.1673 6.248L19.5553 5.704L20.0313 5.16H20.6433ZM2.96334 5.636C3.37134 5.86266 3.62068 6.112 3.71134 6.384C3.80201 6.656 3.77934 7.04133 3.64334 7.54C3.55268 8.084 3.43934 8.51467 3.30334 8.832C3.16734 9.104 2.80468 9.26266 2.21534 9.308C1.71668 9.35333 1.42201 9.21733 1.33134 8.9C1.24068 8.58266 1.10468 8.17466 0.923344 7.676C0.696677 7.268 0.515344 6.95066 0.379344 6.724C0.288677 6.452 0.424677 6.15733 0.787344 5.84C1.19534 5.47733 1.53534 5.296 1.80734 5.296C2.07934 5.25067 2.46468 5.364 2.96334 5.636ZM17.4473 5.296C17.7193 5.38666 17.8327 5.52266 17.7873 5.704C17.7873 5.88533 17.7873 6.112 17.7873 6.384C17.7873 6.61066 17.7873 6.792 17.7873 6.928C17.7873 7.064 17.674 7.17733 17.4473 7.268C17.0393 7.404 16.6993 7.29067 16.4273 6.928C16.2913 6.74666 16.246 6.588 16.2913 6.452C16.3367 6.316 16.4273 6.15733 16.5633 5.976C16.6993 5.74933 16.8127 5.568 16.9033 5.432C16.994 5.25066 17.1753 5.20533 17.4473 5.296ZM13.7753 5.704L13.2993 6.18L12.8233 6.112L12.7553 5.636L13.1633 5.364L13.7753 5.704ZM8.60734 6.044C9.06068 6.36133 9.19668 6.81467 9.01534 7.404C8.92468 7.72133 8.78868 7.90266 8.60734 7.948C8.47134 7.99333 8.24468 8.016 7.92734 8.016C7.47401 8.016 7.17934 7.812 7.04334 7.404C6.90734 7.04133 6.79401 6.74667 6.70334 6.52C6.61268 6.29333 6.72601 6.06667 7.04334 5.84C7.36068 5.61333 7.61001 5.54533 7.79134 5.636C8.01801 5.68133 8.29001 5.81733 8.60734 6.044ZM14.9313 5.636L15.5433 5.84L15.1353 6.384L14.6593 6.452L14.9313 5.636ZM25.7433 5.772L25.9473 6.18L25.6073 6.724L24.9273 6.452L25.1313 5.704L25.7433 5.772ZM38.3233 6.384L38.3913 6.86L38.0513 7.404L37.5073 6.996L37.7113 6.384H38.3233ZM24.2473 6.588C24.7007 6.588 24.9953 6.83733 25.1313 7.336C25.222 7.56266 25.222 7.744 25.1313 7.88C25.0407 7.97067 24.882 8.084 24.6553 8.22C24.4287 8.356 24.1793 8.31067 23.9073 8.084C23.6353 7.90267 23.5447 7.676 23.6353 7.404C23.726 7.17733 23.794 6.996 23.8393 6.86C23.8847 6.67867 24.0207 6.588 24.2473 6.588ZM12.0073 6.86L11.6673 7.336L11.1233 7.268L11.1913 6.792L11.5313 6.588L12.0073 6.86ZM20.4393 6.724C21.0287 6.724 21.346 6.928 21.3913 7.336C21.4367 7.69866 21.5273 8.152 21.6633 8.696C21.8447 9.33067 21.6633 9.852 21.1193 10.26C20.6207 10.5773 20.2353 10.8947 19.9633 11.212C19.6913 11.484 19.3287 11.416 18.8753 11.008C18.3767 10.6453 18.1953 10.3053 18.3313 9.988C18.4673 9.62533 18.626 9.14933 18.8073 8.56C19.034 7.97066 19.2153 7.51733 19.3513 7.2C19.4873 6.88266 19.85 6.724 20.4393 6.724ZM36.7593 7.268V8.016L36.2153 8.22L35.8753 7.812L36.0793 7.268H36.7593ZM32.1353 9.376C32.3167 10.2373 32.3167 10.8947 32.1353 11.348C31.9993 11.756 31.5687 12.164 30.8433 12.572C30.118 12.98 29.5287 13.1387 29.0753 13.048C28.6673 12.9573 28.146 12.6173 27.5113 12.028C26.922 11.5293 26.6273 11.076 26.6273 10.668C26.6273 10.26 26.786 9.69333 27.1033 8.968C27.4207 8.33333 27.738 7.92533 28.0553 7.744C28.3727 7.51733 28.894 7.42667 29.6193 7.472C30.39 7.56266 30.9567 7.72133 31.3193 7.948C31.682 8.12933 31.954 8.60533 32.1353 9.376ZM14.9313 7.744C15.158 7.92533 15.2713 8.084 15.2713 8.22C15.3167 8.356 15.3167 8.56 15.2713 8.832C15.1807 9.104 15.09 9.308 14.9993 9.444C14.9087 9.58 14.7273 9.648 14.4553 9.648C13.9567 9.69333 13.6167 9.46667 13.4353 8.968C13.3447 8.74133 13.3447 8.56 13.4353 8.424C13.526 8.288 13.662 8.152 13.8433 8.016C14.07 7.83467 14.2513 7.72133 14.3873 7.676C14.5233 7.58533 14.7047 7.608 14.9313 7.744ZM35.1273 8.152L35.1953 8.9L34.6513 9.444L34.1753 8.832L34.3113 8.084L35.1273 8.152ZM11.9393 8.084L12.4833 8.492L11.9393 9.104L11.4633 8.628L11.5313 8.152L11.9393 8.084ZM38.5953 8.356L38.8673 8.9L38.6633 9.444L37.9833 9.308L38.1873 8.696L38.5953 8.356ZM7.04334 9.784C7.08868 10.056 7.08868 10.2827 7.04334 10.464C7.04334 10.6 6.93001 10.736 6.70334 10.872C6.20468 11.0533 5.77401 10.9627 5.41134 10.6C5.23001 10.3733 5.13934 10.192 5.13934 10.056C5.18468 9.87466 5.27534 9.648 5.41134 9.376C5.63801 8.92267 5.97801 8.74133 6.43134 8.832C6.70334 8.87733 6.86201 8.99066 6.90734 9.172C6.95268 9.308 6.99801 9.512 7.04334 9.784ZM9.96734 9.852L9.76334 10.532L9.21934 10.464L8.60734 9.988L9.35534 9.444L9.96734 9.852ZM36.4193 9.512C36.918 9.648 37.1673 9.92 37.1673 10.328C37.1673 10.6 37.0993 10.7587 36.9633 10.804C36.8727 10.8493 36.714 10.9173 36.4873 11.008C36.17 11.144 35.898 11.076 35.6713 10.804C35.3993 10.4867 35.354 10.192 35.5353 9.92C35.762 9.55733 36.0567 9.42133 36.4193 9.512ZM16.0873 9.716L16.6313 10.124L16.2233 10.668L15.8153 10.532L15.5433 9.988L16.0873 9.716ZM24.3833 9.92L24.5193 10.396L24.1793 10.872L23.7033 10.532V9.852L24.3833 9.92ZM3.30334 9.852L3.50734 10.532L2.96334 10.804L2.55534 10.532L2.69134 10.056L3.30334 9.852ZM39.0033 9.988L39.0713 10.872L38.3233 11.212L37.7793 10.532L38.3233 10.056L39.0033 9.988ZM40.6353 10.192L40.9073 11.008L40.1593 11.416L39.8193 10.804L39.8873 10.192H40.6353ZM5.13934 11.076L4.79934 11.484L4.11934 11.552L4.25534 10.94L4.73134 10.6L5.13934 11.076ZM7.85934 10.94L8.13134 11.416L7.92734 12.096L7.38334 11.62L7.17934 11.008L7.85934 10.94ZM15.6113 11.076L16.2233 11.552L15.8153 12.232L15.2713 12.096L14.9313 11.484L15.6113 11.076ZM1.80734 11.212L2.21534 11.62L1.87534 12.232L1.12734 12.028L1.19534 11.28L1.80734 11.212ZM38.2553 11.892L37.7793 12.368L37.3033 12.3L37.2353 11.824L37.6433 11.484L38.2553 11.892ZM11.8713 11.824C12.4607 11.9147 12.8913 12.0507 13.1633 12.232C13.4353 12.368 13.6393 12.7307 13.7753 13.32C13.866 14 13.8433 14.5213 13.7073 14.884C13.6167 15.2013 13.2767 15.5187 12.6873 15.836C12.1433 16.108 11.7353 16.1533 11.4633 15.972C11.1913 15.7453 10.8287 15.428 10.3753 15.02C9.83134 14.5213 9.37801 14.136 9.01534 13.864C8.65268 13.592 8.63001 13.116 8.94734 12.436C9.26468 11.8013 9.65001 11.5293 10.1033 11.62C10.5567 11.6653 11.146 11.7333 11.8713 11.824ZM24.2473 11.96V12.64L23.7713 13.116L23.4313 12.504V11.756L24.2473 11.96ZM19.2833 11.824L19.1473 12.436L18.6713 12.776L18.3313 12.232L18.6033 11.824H19.2833ZM6.70334 12.164C6.97534 12.436 6.99801 12.776 6.77134 13.184C6.63534 13.456 6.52201 13.66 6.43134 13.796C6.34068 13.8867 6.15934 13.9093 5.88734 13.864C5.61534 13.8187 5.43401 13.728 5.34334 13.592C5.29801 13.456 5.25268 13.252 5.20734 12.98C5.16201 12.5267 5.29801 12.2093 5.61534 12.028C6.02334 11.8467 6.38601 11.892 6.70334 12.164ZM34.2433 12.504L34.3793 13.388L33.5633 13.456L32.8153 12.912L33.4273 12.164L34.2433 12.504ZM41.4513 13.116L41.1793 13.66L40.6353 13.388L40.7033 12.844L41.4513 13.116ZM36.7593 13.524L36.5553 13.932L35.8073 14.136L35.9433 13.388L36.4873 12.912L36.7593 13.524ZM25.6753 13.184L25.8793 13.932H25.1313L24.7233 13.524L25.1313 13.048L25.6753 13.184ZM39.4793 13.592C39.7513 13.9547 39.774 14.2947 39.5473 14.612C39.366 14.884 39.2073 15.0653 39.0713 15.156C38.9353 15.2467 38.7313 15.2467 38.4593 15.156C38.1873 15.0653 38.006 14.952 37.9153 14.816C37.87 14.68 37.8473 14.4533 37.8473 14.136C37.8473 13.7733 38.074 13.524 38.5273 13.388C38.9353 13.2067 39.2527 13.2747 39.4793 13.592ZM16.2233 13.66L15.9513 14.204L15.4073 14.272L15.2713 13.728L15.6793 13.456L16.2233 13.66ZM3.43934 14.272C3.62068 14.544 3.75668 14.7707 3.84734 14.952C3.93801 15.1333 3.89268 15.3373 3.71134 15.564C3.48468 15.836 3.28068 15.9267 3.09934 15.836C2.91801 15.7453 2.69134 15.632 2.41934 15.496C2.14734 15.4053 1.94334 15.3147 1.80734 15.224C1.67134 15.1333 1.60334 14.952 1.60334 14.68C1.64868 14.3173 1.69401 14.0453 1.73934 13.864C1.83001 13.6827 2.03401 13.5693 2.35134 13.524C2.66868 13.4333 2.87268 13.4787 2.96334 13.66C3.09934 13.796 3.25801 14 3.43934 14.272ZM32.0673 13.796L32.6113 14.136L32.1353 14.476L31.7273 14.408L31.5233 13.932L32.0673 13.796ZM7.65534 14.136L7.99534 14.816L7.79134 15.428L7.11134 15.292V14.68L7.65534 14.136ZM41.7913 14.748C41.9727 14.9293 42.086 15.088 42.1313 15.224C42.222 15.3147 42.222 15.4733 42.1313 15.7C41.95 16.0627 41.61 16.2213 41.1113 16.176C40.8847 16.1307 40.7487 16.0627 40.7033 15.972C40.7033 15.836 40.6807 15.6547 40.6353 15.428C40.59 15.02 40.6807 14.748 40.9073 14.612C41.2247 14.476 41.5193 14.5213 41.7913 14.748ZM28.3953 14.612L28.8033 15.088L28.1913 15.292L27.6473 15.156L27.9193 14.612H28.3953ZM4.79934 15.292L5.34334 15.768L5.20734 16.516L4.52734 16.312L4.32334 15.768L4.79934 15.292ZM29.9593 15.7L30.3673 16.244L29.6873 16.584L29.4153 16.04L29.4833 15.428L29.9593 15.7ZM15.6113 15.496C16.0647 15.632 16.314 15.904 16.3593 16.312C16.3593 16.5387 16.2913 16.6973 16.1553 16.788C16.0647 16.8333 15.906 16.9013 15.6793 16.992C15.4073 17.128 15.158 17.06 14.9313 16.788C14.7953 16.6067 14.682 16.4707 14.5913 16.38C14.546 16.2893 14.5913 16.1533 14.7273 15.972C14.954 15.564 15.2487 15.4053 15.6113 15.496ZM27.1713 15.768L27.1033 16.244L26.4913 16.312L26.3553 15.836L26.7633 15.496L27.1713 15.768ZM0.991344 15.632L1.19534 16.108L0.583344 16.38V15.496L0.991344 15.632ZM35.8753 16.584C36.4647 16.992 36.8727 17.3547 37.0993 17.672C37.3713 17.944 37.394 18.3973 37.1673 19.032C36.986 19.712 36.714 20.1427 36.3513 20.324C35.9887 20.46 35.4673 20.528 34.7873 20.528C33.926 20.528 33.246 20.528 32.7473 20.528C32.294 20.528 31.9313 20.1427 31.6593 19.372C31.342 18.5107 31.2967 17.876 31.5233 17.468C31.75 17.0147 32.226 16.516 32.9513 15.972C33.5407 15.5187 34.0167 15.4053 34.3793 15.632C34.7873 15.8587 35.286 16.176 35.8753 16.584ZM8.19934 16.584C8.56201 16.856 8.65268 17.128 8.47134 17.4C8.33534 17.6267 8.17668 17.944 7.99534 18.352C7.85934 18.76 7.74601 19.1 7.65534 19.372C7.61001 19.644 7.38334 19.78 6.97534 19.78C6.43134 19.7347 6.02334 19.644 5.75134 19.508C5.52468 19.372 5.34334 19.032 5.20734 18.488C5.07134 17.9893 5.07134 17.6267 5.20734 17.4C5.34334 17.128 5.63801 16.8333 6.09134 16.516C6.54468 16.244 6.90734 16.108 7.17934 16.108C7.45134 16.108 7.79134 16.2667 8.19934 16.584ZM39.9553 16.516L40.4313 17.128L40.0233 17.876L39.4113 17.468L39.2073 16.856L39.9553 16.516ZM26.1513 17.468L26.3553 18.08L25.6753 18.352L25.4713 17.876L25.6073 17.4L26.1513 17.468ZM11.5993 17.468L11.5313 18.42L10.7833 18.828L10.3753 18.148L10.6473 17.536L11.5993 17.468ZM41.5873 17.876L42.1313 18.352L41.4513 19.032L40.6353 18.556L40.8393 17.604L41.5873 17.876ZM3.57534 18.352C3.66601 18.624 3.66601 18.8507 3.57534 19.032C3.48468 19.168 3.32601 19.3267 3.09934 19.508C2.87268 19.7347 2.69134 19.8707 2.55534 19.916C2.41934 19.9613 2.21534 19.916 1.94334 19.78C1.67134 19.644 1.51268 19.508 1.46734 19.372C1.46734 19.1907 1.49001 18.9413 1.53534 18.624C1.62601 18.3067 1.69401 18.08 1.73934 17.944C1.83001 17.808 2.03401 17.7173 2.35134 17.672C2.94068 17.6267 3.34868 17.8533 3.57534 18.352ZM28.5993 18.216C28.7353 18.3973 28.8713 18.5333 29.0073 18.624C29.1433 18.6693 29.166 18.8053 29.0753 19.032C28.8487 19.4853 28.5087 19.6893 28.0553 19.644C27.7833 19.5987 27.6473 19.508 27.6473 19.372C27.6473 19.1907 27.6247 18.9867 27.5793 18.76C27.534 18.5333 27.4887 18.352 27.4433 18.216C27.4433 18.08 27.5567 17.9667 27.7833 17.876C27.9647 17.74 28.1007 17.74 28.1913 17.876C28.282 17.9667 28.418 18.08 28.5993 18.216ZM13.7073 18.012L14.0473 18.76L13.4353 19.032L12.6873 18.964L12.9593 18.216L13.7073 18.012ZM39.8193 18.216L40.2953 19.1L39.5473 19.576L39.0033 19.236L39.0713 18.556L39.8193 18.216ZM16.0193 18.692L16.3593 19.372L15.6793 19.984L15.2713 19.304L15.2033 18.556L16.0193 18.692ZM26.2873 19.916C26.3327 20.324 26.242 20.6187 26.0153 20.8C25.698 20.936 25.3807 20.868 25.0633 20.596C24.882 20.4147 24.746 20.2787 24.6553 20.188C24.61 20.052 24.6327 19.8707 24.7233 19.644C24.9047 19.3267 25.0407 19.1 25.1313 18.964C25.222 18.828 25.4487 18.7827 25.8113 18.828C26.0833 18.8733 26.2193 19.0093 26.2193 19.236C26.2193 19.4173 26.242 19.644 26.2873 19.916ZM10.0353 19.372L9.89934 19.916L9.21934 19.848L9.49134 19.508L10.0353 19.372ZM39.2753 20.8L39.2073 21.616L38.3913 21.276L38.0513 20.528L38.9353 19.916L39.2753 20.8ZM40.7713 19.984L41.2473 20.324L40.9753 20.936H40.2953V20.256L40.7713 19.984ZM6.15934 20.732L5.68334 21.276L5.20734 20.936L5.07134 20.46L5.68334 20.052L6.15934 20.732ZM17.3793 20.392L17.4473 20.936L16.9713 21.344L16.4273 20.868L16.6993 20.188L17.3793 20.392ZM7.99534 20.732L8.40334 21.48L7.51934 21.752L7.04334 21.14L7.38334 20.392L7.99534 20.732ZM1.33134 20.596L1.87534 21.208L1.12734 21.344L0.583344 21.14L0.787344 20.528L1.33134 20.596ZM30.2993 21.004C30.526 21.2307 30.5487 21.5027 30.3673 21.82C30.2313 22.0467 30.118 22.2053 30.0273 22.296C29.9367 22.3867 29.778 22.4093 29.5513 22.364C29.234 22.2733 28.9847 22.2053 28.8033 22.16C28.6673 22.1147 28.5767 21.9333 28.5313 21.616C28.486 21.2987 28.554 21.1173 28.7353 21.072C28.962 21.0267 29.2113 20.936 29.4833 20.8C29.8007 20.664 30.0727 20.732 30.2993 21.004ZM11.9393 21.344C11.9847 21.616 12.03 21.82 12.0753 21.956C12.1207 22.092 12.0527 22.228 11.8713 22.364C11.6447 22.5 11.4633 22.5227 11.3273 22.432C11.2367 22.296 11.078 22.1373 10.8513 21.956C10.67 21.82 10.67 21.5933 10.8513 21.276C10.942 20.9587 11.1233 20.8227 11.3953 20.868C11.6673 20.9133 11.8487 21.072 11.9393 21.344ZM4.25534 21.548L3.77934 22.432L2.89534 22.296V21.548L3.43934 21.004L4.25534 21.548ZM13.5713 21.48L14.1833 22.024L13.7753 22.568L13.2313 22.432L13.1633 22.024L13.5713 21.48ZM23.9073 22.432C24.134 22.7493 24.1567 22.9987 23.9753 23.18C23.8393 23.316 23.658 23.5427 23.4313 23.86C23.2047 24.132 22.8647 24.1773 22.4113 23.996C22.094 23.9053 21.822 23.8373 21.5953 23.792C21.414 23.7013 21.3233 23.4973 21.3233 23.18C21.3233 22.8173 21.3913 22.568 21.5273 22.432C21.7087 22.296 21.9807 22.1827 22.3433 22.092C22.7513 21.956 23.0687 21.9107 23.2953 21.956C23.522 21.956 23.726 22.1147 23.9073 22.432ZM33.5633 22.16L33.4953 22.84L32.9513 22.908L32.4753 22.5L32.8833 21.888L33.5633 22.16ZM16.4953 21.956L16.0873 22.84L15.6793 22.568L15.7473 21.956H16.4953ZM27.9193 22.16V22.704L27.3753 22.772L27.5113 21.956L27.9193 22.16ZM19.6233 22.84C19.7593 23.0667 19.8727 23.248 19.9633 23.384C20.054 23.52 20.0313 23.6787 19.8953 23.86C19.5327 24.3133 19.1473 24.4493 18.7393 24.268C18.4673 24.1773 18.3313 24.064 18.3313 23.928C18.3767 23.7467 18.3993 23.52 18.3993 23.248C18.3993 22.9307 18.3767 22.6813 18.3313 22.5C18.3313 22.3187 18.4673 22.1827 18.7393 22.092C19.0113 22.0013 19.1927 22.0467 19.2833 22.228C19.374 22.4093 19.4873 22.6133 19.6233 22.84ZM9.01534 22.228L8.87934 22.704L8.53934 23.044L8.13134 22.636L8.40334 22.16L9.01534 22.228ZM6.22734 22.296C6.59001 22.432 6.83934 22.5907 6.97534 22.772C7.11134 22.908 7.17934 23.1573 7.17934 23.52C7.17934 24.2 6.86201 24.6307 6.22734 24.812C5.91001 24.9027 5.68334 24.8573 5.54734 24.676C5.45668 24.4947 5.32068 24.268 5.13934 23.996C4.91268 23.6333 4.91268 23.2933 5.13934 22.976C5.32068 22.704 5.45668 22.5 5.54734 22.364C5.68334 22.228 5.91001 22.2053 6.22734 22.296ZM1.53534 22.364L1.60334 22.976H0.991344L0.583344 22.636L0.991344 22.228L1.53534 22.364ZM37.6433 22.5C37.9153 22.8173 37.9833 23.1347 37.8473 23.452C37.7113 23.6787 37.5753 23.86 37.4393 23.996C37.3487 24.0867 37.1673 24.1093 36.8953 24.064C36.442 23.9733 36.17 23.6787 36.0793 23.18C36.034 22.908 36.0793 22.7493 36.2153 22.704C36.3513 22.6133 36.5327 22.5 36.7593 22.364C37.0767 22.228 37.3713 22.2733 37.6433 22.5ZM40.2273 22.976C40.3633 23.2027 40.4767 23.384 40.5673 23.52C40.658 23.6107 40.6127 23.7467 40.4313 23.928C40.114 24.2453 39.7287 24.3133 39.2753 24.132C39.0033 23.996 38.7993 23.8827 38.6633 23.792C38.5727 23.656 38.55 23.4293 38.5953 23.112C38.6407 22.84 38.7313 22.6813 38.8673 22.636C39.0487 22.5453 39.2753 22.4773 39.5473 22.432C39.7287 22.3867 39.8647 22.432 39.9553 22.568C40.046 22.6587 40.1367 22.7947 40.2273 22.976ZM11.4633 23.248L11.5313 23.928H10.7833L10.6473 23.384L10.9873 22.84L11.4633 23.248ZM26.7633 23.996L26.2193 24.812L25.5393 24.336L25.3353 23.588L26.1513 23.248L26.7633 23.996ZM2.01134 23.316L2.41934 23.792L2.28334 24.336H1.67134V23.792L2.01134 23.316ZM15.4753 25.22C15.4753 25.6733 15.3847 25.9907 15.2033 26.172C15.022 26.3533 14.682 26.5347 14.1833 26.716C13.7753 26.852 13.4353 26.8973 13.1633 26.852C12.9367 26.8067 12.6873 26.58 12.4153 26.172C12.1433 25.8547 12.0753 25.6053 12.2113 25.424C12.3927 25.1973 12.5967 24.9253 12.8233 24.608C13.0953 24.2 13.2767 23.86 13.3673 23.588C13.5033 23.316 13.798 23.248 14.2513 23.384C14.7953 23.5653 15.1353 23.792 15.2713 24.064C15.4073 24.2907 15.4753 24.676 15.4753 25.22ZM35.4673 23.452L35.3313 24.2L34.6513 24.54L34.2433 23.86L34.7193 23.452H35.4673ZM31.6593 24.132C32.3393 24.5853 32.7927 24.9933 33.0193 25.356C33.246 25.6733 33.2687 26.2173 33.0873 26.988C32.906 27.804 32.634 28.3253 32.2713 28.552C31.9087 28.7787 31.3193 28.9373 30.5033 29.028C29.8233 29.0733 29.3473 28.96 29.0753 28.688C28.8487 28.3707 28.5993 27.8947 28.3273 27.26C28.0553 26.6253 27.9193 26.1267 27.9193 25.764C27.9193 25.4013 28.1687 24.9933 28.6673 24.54C29.2567 24.0413 29.7327 23.7693 30.0953 23.724C30.5033 23.6333 31.0247 23.7693 31.6593 24.132ZM9.62734 24.064L9.21934 24.744L8.60734 24.812L8.47134 24.2L8.94734 23.724L9.62734 24.064ZM17.6513 24.132L17.7873 24.744L17.5153 25.152L16.9033 24.948V24.268L17.6513 24.132ZM19.6913 24.812L20.0313 25.492L19.9633 26.172L19.2833 26.036L19.0793 25.424L19.6913 24.812ZM10.9873 24.88L11.3273 25.492L10.7153 25.764L10.3073 25.424L10.4433 24.948L10.9873 24.88ZM37.0313 25.152L37.5753 25.424L37.3033 26.172L36.6233 25.968L36.4873 25.356L37.0313 25.152ZM26.2193 25.22L26.7633 25.628L26.2873 26.036L25.7433 26.24V25.56L26.2193 25.22ZM2.96334 26.24C3.00868 26.5573 3.00868 26.8293 2.96334 27.056C2.91801 27.2373 2.73668 27.396 2.41934 27.532C2.05668 27.7133 1.76201 27.8267 1.53534 27.872C1.30868 27.9173 1.03668 27.7813 0.719344 27.464C0.447344 27.192 0.379344 26.9653 0.515344 26.784C0.651344 26.5573 0.810011 26.2627 0.991344 25.9C1.21801 25.4013 1.58068 25.1973 2.07934 25.288C2.57801 25.3787 2.87268 25.696 2.96334 26.24ZM6.22734 25.424C6.54468 25.56 6.68068 25.7413 6.63534 25.968C6.59001 26.1947 6.56734 26.4893 6.56734 26.852C6.56734 27.2147 6.56734 27.5093 6.56734 27.736C6.61268 27.9627 6.45401 28.1213 6.09134 28.212C5.72868 28.3027 5.47934 28.2573 5.34334 28.076C5.20734 27.8947 5.02601 27.6453 4.79934 27.328C4.61801 27.0107 4.48201 26.7613 4.39134 26.58C4.30068 26.3987 4.36868 26.172 4.59534 25.9C5.00334 25.356 5.54734 25.1973 6.22734 25.424ZM17.7873 25.968C18.2407 26.1493 18.558 26.3307 18.7393 26.512C18.966 26.648 19.0567 26.9427 19.0113 27.396C18.966 27.8947 18.8527 28.2347 18.6713 28.416C18.49 28.5973 18.1727 28.7333 17.7193 28.824C17.3113 28.9147 17.062 28.8467 16.9713 28.62C16.926 28.348 16.79 28.0533 16.5633 27.736C16.3367 27.3733 16.11 27.1013 15.8833 26.92C15.6567 26.7387 15.6793 26.4667 15.9513 26.104C16.2687 25.7413 16.5407 25.6053 16.7673 25.696C17.0393 25.7413 17.3793 25.832 17.7873 25.968ZM23.8393 25.764L24.4513 26.036L24.1113 26.784L23.4313 26.58L23.1593 25.9L23.8393 25.764ZM39.7513 26.58L39.2073 27.056L38.5273 26.988L38.5953 26.24L39.2753 25.9L39.7513 26.58ZM21.9353 26.716C22.026 26.9427 22.094 27.124 22.1393 27.26C22.1847 27.396 22.1167 27.5547 21.9353 27.736C21.754 27.9627 21.5953 28.1213 21.4593 28.212C21.3233 28.2573 21.0967 28.2347 20.7793 28.144C20.2807 27.872 20.054 27.4867 20.0993 26.988C20.1447 26.716 20.2353 26.5573 20.3713 26.512C20.5527 26.4213 20.7793 26.3307 21.0513 26.24C21.3687 26.1947 21.6633 26.3533 21.9353 26.716ZM36.2153 27.26C36.306 27.7133 36.1927 28.008 35.8753 28.144C35.6487 28.28 35.4447 28.3707 35.2633 28.416C35.1273 28.416 34.9687 28.3253 34.7873 28.144C34.5607 27.9627 34.47 27.804 34.5153 27.668C34.606 27.4867 34.6967 27.2827 34.7873 27.056C34.9233 26.784 35.014 26.58 35.0593 26.444C35.15 26.2627 35.3313 26.1947 35.6033 26.24C35.9207 26.2853 36.0793 26.3987 36.0793 26.58C36.1247 26.7613 36.17 26.988 36.2153 27.26ZM8.81134 26.92L8.67534 27.464L8.13134 27.396L7.85934 26.92L8.33534 26.376L8.81134 26.92ZM11.5313 26.852L11.4633 27.328L10.9193 27.532L10.8513 26.988L11.1233 26.512L11.5313 26.852ZM14.6593 27.532L15.2033 28.144L14.9993 28.892L14.3193 28.62L13.9793 28.008L14.6593 27.532ZM26.0833 28.892C26.4007 29.4813 26.6047 29.9573 26.6953 30.32C26.786 30.6373 26.6273 31.0453 26.2193 31.544C25.7207 32.088 25.29 32.4053 24.9273 32.496C24.5647 32.5413 24.0433 32.428 23.3633 32.156C22.7287 31.884 22.3207 31.5893 22.1393 31.272C22.0033 30.9093 21.958 30.3653 22.0033 29.64C22.094 28.96 22.2527 28.5067 22.4793 28.28C22.7513 28.008 23.2273 27.804 23.9073 27.668C24.542 27.532 24.9727 27.5773 25.1993 27.804C25.4713 27.9853 25.766 28.348 26.0833 28.892ZM12.8913 27.668L13.4353 28.416L12.7553 28.96L12.0073 28.756L12.2793 28.076L12.8913 27.668ZM9.83134 28.212L10.3073 28.756L10.0353 29.368L9.28734 29.436L9.15134 28.62L9.83134 28.212ZM0.787344 28.28L0.651344 29.096L0.311344 28.96L0.243344 28.484L0.787344 28.28ZM33.4953 28.552L34.1073 29.232L33.6993 29.98L32.8833 29.844L33.0193 29.164L33.4953 28.552ZM6.36334 29.096V29.708H5.68334L5.41134 29.096L5.88734 28.756L6.36334 29.096ZM16.2233 29.028L16.3593 29.708L15.6793 29.912L15.3393 29.368L15.6113 28.892L16.2233 29.028ZM8.60734 29.3L8.33534 30.116L7.58734 29.844L7.51934 29.232L7.99534 29.028L8.60734 29.3ZM19.7593 30.252C19.8047 30.6147 19.8047 30.8867 19.7593 31.068C19.7593 31.2493 19.6007 31.4307 19.2833 31.612C18.966 31.7933 18.7167 31.8613 18.5353 31.816C18.354 31.7253 18.1273 31.544 17.8553 31.272C17.4473 30.864 17.3567 30.4107 17.5833 29.912C17.81 29.4133 18.218 29.2093 18.8073 29.3C19.3513 29.3907 19.6687 29.708 19.7593 30.252ZM4.32334 29.64C4.55001 29.6853 4.73134 29.708 4.86734 29.708C5.04868 29.6627 5.18468 29.776 5.27534 30.048C5.32068 30.2747 5.25268 30.4333 5.07134 30.524C4.93534 30.5693 4.77668 30.66 4.59534 30.796C4.36868 30.932 4.18734 31.0453 4.05134 31.136C3.91534 31.2267 3.75668 31.1813 3.57534 31C3.39401 30.8187 3.32601 30.66 3.37134 30.524C3.41668 30.388 3.48468 30.2067 3.57534 29.98C3.66601 29.708 3.91534 29.5947 4.32334 29.64ZM29.2113 30.388C29.3473 30.7507 29.2793 31.0453 29.0073 31.272C28.826 31.408 28.6673 31.4533 28.5313 31.408C28.4407 31.3627 28.3047 31.2947 28.1233 31.204C27.8967 31.0227 27.6927 30.9093 27.5113 30.864C27.3753 30.8187 27.3527 30.66 27.4433 30.388C27.4887 30.116 27.602 30.0027 27.7833 30.048C27.9647 30.048 28.1913 30.048 28.4633 30.048C28.6447 30.048 28.8033 30.048 28.9393 30.048C29.0753 30.048 29.166 30.1613 29.2113 30.388ZM1.94334 30.66C2.07934 30.932 2.03401 31.1813 1.80734 31.408C1.53534 31.6347 1.28601 31.68 1.05934 31.544C0.742011 31.3627 0.606011 31.1133 0.651344 30.796C0.696677 30.524 0.923344 30.3653 1.33134 30.32C1.64868 30.2747 1.85268 30.388 1.94334 30.66ZM8.81134 30.524L9.35534 30.864L8.94734 31.408L8.33534 31.204L8.40334 30.66L8.81134 30.524ZM31.3193 30.864L30.9793 31.544L30.3673 31.34L30.2313 30.864L30.6393 30.592L31.3193 30.864ZM14.1833 31.136C14.5913 31.3173 14.886 31.4987 15.0673 31.68C15.2487 31.8613 15.3167 32.156 15.2713 32.564C15.1807 33.1533 15.0673 33.584 14.9313 33.856C14.8407 34.128 14.5007 34.332 13.9113 34.468C13.322 34.5587 12.8913 34.536 12.6193 34.4C12.3473 34.2187 12.0753 33.856 11.8033 33.312C11.5313 32.8133 11.418 32.428 11.4633 32.156C11.554 31.8387 11.8033 31.476 12.2113 31.068C12.5287 30.7053 12.8233 30.5693 13.0953 30.66C13.3673 30.7507 13.73 30.9093 14.1833 31.136ZM3.71134 31.748L3.84734 32.292L3.43934 32.564L2.82734 32.224L3.16734 31.612L3.71134 31.748ZM21.3913 31.612L21.4593 32.292L20.9153 32.904L20.4393 32.224L20.7793 31.68L21.3913 31.612ZM6.77134 32.496C7.17934 32.5867 7.49668 32.6773 7.72334 32.768C7.95001 32.8133 8.08601 33.04 8.13134 33.448C8.17668 33.856 8.08601 34.128 7.85934 34.264C7.67801 34.4 7.40601 34.536 7.04334 34.672C6.63534 34.8987 6.31801 35.08 6.09134 35.216C5.86468 35.3067 5.59268 35.1933 5.27534 34.876C4.91268 34.468 4.66334 34.128 4.52734 33.856C4.43668 33.5387 4.52734 33.1307 4.79934 32.632C5.02601 32.224 5.27534 32.088 5.54734 32.224C5.86468 32.3147 6.27268 32.4053 6.77134 32.496ZM17.9913 32.836L17.7193 33.516L17.1753 33.176L16.9033 32.632L17.5833 32.224L17.9913 32.836ZM10.3073 32.632L10.5793 33.312L9.96734 33.652L9.21934 33.38L9.69534 32.7L10.3073 32.632ZM2.14734 33.108V33.72L1.39934 33.652L1.46734 33.04L2.14734 33.108ZM3.84734 34.264C3.98334 34.5813 3.93801 34.8307 3.71134 35.012C3.53001 35.148 3.37134 35.2613 3.23534 35.352C3.14468 35.4427 3.00868 35.42 2.82734 35.284C2.46468 35.0573 2.32868 34.7173 2.41934 34.264C2.55534 33.856 2.82734 33.6293 3.23534 33.584C3.46201 33.584 3.59801 33.652 3.64334 33.788C3.68868 33.8787 3.75668 34.0373 3.84734 34.264ZM1.53534 34.264L1.80734 34.672L1.33134 34.944L0.855344 34.672L1.05934 34.128L1.53534 34.264ZM16.7673 35.012L16.6313 36.1H15.7473L15.0673 35.556L15.6793 34.672L16.7673 35.012ZM10.8513 35.148V35.964H10.3073V35.352L10.8513 35.148ZM1.33134 35.896V36.44L0.923344 36.916L0.379344 36.44L0.855344 36.032L1.33134 35.896ZM14.5233 36.168L14.4553 36.712L13.7753 36.508L13.9113 35.896L14.5233 36.168ZM2.41934 36.576L2.75934 36.984L2.41934 37.528L1.87534 37.256L1.80734 36.576H2.41934ZM12.5513 36.984L12.6873 37.732L12.0753 38.004L11.4633 37.596L11.6673 36.644L12.5513 36.984ZM10.1713 36.644L10.5793 37.12L10.1713 37.528L9.69534 37.392V36.916L10.1713 36.644ZM8.13134 36.848C8.35801 36.984 8.53934 37.0747 8.67534 37.12C8.85668 37.1653 8.92468 37.3013 8.87934 37.528C8.78868 38.0267 8.49401 38.3213 7.99534 38.412C7.76868 38.4573 7.61001 38.412 7.51934 38.276C7.47401 38.14 7.38334 37.9587 7.24734 37.732C7.11134 37.4147 7.15668 37.1427 7.38334 36.916C7.56468 36.7347 7.81401 36.712 8.13134 36.848ZM5.95534 36.984L6.56734 37.256L6.15934 37.868L5.41134 37.732L5.54734 37.12L5.95534 36.984ZM4.52734 37.392C4.70868 37.5733 4.82201 37.7093 4.86734 37.8C4.95801 37.8907 4.95801 38.0493 4.86734 38.276C4.73134 38.4573 4.59534 38.5707 4.45934 38.616C4.36868 38.616 4.18734 38.5933 3.91534 38.548C3.68868 38.5027 3.50734 38.48 3.37134 38.48C3.23534 38.4347 3.14468 38.276 3.09934 38.004C3.05401 37.7773 3.09934 37.6413 3.23534 37.596C3.41668 37.5507 3.59801 37.4827 3.77934 37.392C4.09668 37.2107 4.34601 37.2107 4.52734 37.392ZM1.12734 37.868L1.26334 38.616L0.447344 38.684L0.243344 38.072L0.583344 37.46L1.12734 37.868ZM17.1073 38.072L17.1753 38.752L16.4953 38.888L16.2233 38.344L16.5633 37.732L17.1073 38.072ZM13.9793 38.072L14.5913 38.684L13.9793 39.364L13.0273 39.16L13.0953 38.14L13.9793 38.072ZM11.0553 38.684L10.9193 39.364L10.1713 39.296L9.96734 38.616L10.5113 38.208L11.0553 38.684ZM2.62334 38.48L2.82734 39.092L2.21534 39.5L1.87534 38.888L1.94334 38.208L2.62334 38.48ZM6.29534 38.956L6.49934 39.636L5.95534 40.112L5.41134 39.704L5.61534 39.092L6.29534 38.956ZM12.8233 39.704L12.6193 40.452L12.0073 40.792L11.5313 40.112L12.0073 39.5L12.8233 39.704ZM1.94334 40.588C2.07934 40.8147 2.19268 40.996 2.28334 41.132C2.37401 41.268 2.30601 41.4267 2.07934 41.608C1.85268 41.7893 1.67134 41.8573 1.53534 41.812C1.39934 41.7667 1.19534 41.676 0.923344 41.54C0.742011 41.404 0.651344 41.2907 0.651344 41.2C0.696677 41.064 0.742011 40.8827 0.787344 40.656C0.878011 40.384 0.923344 40.1573 0.923344 39.976C0.923344 39.7493 1.05934 39.636 1.33134 39.636C1.60334 39.636 1.73934 39.7267 1.73934 39.908C1.78468 40.0893 1.85268 40.316 1.94334 40.588ZM10.9193 40.248L10.6473 40.86L10.1033 40.724L9.96734 40.248L10.3753 39.772L10.9193 40.248ZM8.94734 40.656L8.53934 41.268L7.65534 41.132L7.85934 40.316L8.60734 39.84L8.94734 40.656ZM4.45934 40.656C4.64068 40.8373 4.66334 41.064 4.52734 41.336C4.43668 41.5627 4.36868 41.744 4.32334 41.88C4.27801 41.9707 4.16468 42.016 3.98334 42.016C3.48468 41.9707 3.19001 41.744 3.09934 41.336C3.05401 41.1093 3.07668 40.9507 3.16734 40.86C3.30334 40.7693 3.48468 40.656 3.71134 40.52C3.93801 40.384 4.18734 40.4293 4.45934 40.656ZM15.9513 40.656L16.4273 41.064L16.2233 41.744H15.4073L15.3393 40.928L15.9513 40.656ZM14.5233 41.064L14.4553 41.54L13.9793 41.472L13.6393 41.064H14.5233ZM6.97534 41.404C7.38334 41.4947 7.65534 41.608 7.79134 41.744C7.97268 41.8347 8.08601 42.084 8.13134 42.492C8.17668 42.9 8.15401 43.1947 8.06334 43.376C7.97268 43.5573 7.74601 43.7387 7.38334 43.92C7.06601 44.056 6.83934 44.0333 6.70334 43.852C6.61268 43.6253 6.45401 43.3987 6.22734 43.172C6.00068 42.9 5.79668 42.7187 5.61534 42.628C5.43401 42.492 5.43401 42.2653 5.61534 41.948C5.79668 41.6307 5.97801 41.4493 6.15934 41.404C6.34068 41.3587 6.61268 41.3587 6.97534 41.404ZM12.2793 41.676L12.0073 42.356L11.5993 42.628L11.2593 42.22L11.4633 41.54L12.2793 41.676ZM10.1033 41.948V42.356L9.69534 42.832L9.49134 42.288L9.55934 41.744L10.1033 41.948ZM16.0193 42.288L16.3593 42.832L16.1553 43.172L15.6793 43.24L15.5433 42.764L16.0193 42.288ZM1.60334 42.424L2.07934 43.036L1.67134 43.784L0.855344 43.512L1.05934 42.9L1.60334 42.424ZM3.91534 43.308L3.43934 43.784L2.96334 43.648L2.82734 43.172L3.37134 42.628L3.91534 43.308ZM14.3873 45.008C14.3873 45.4613 14.342 45.8013 14.2513 46.028C14.206 46.2093 13.9793 46.3907 13.5713 46.572C13.2087 46.708 12.9593 46.6627 12.8233 46.436C12.7327 46.2093 12.574 45.9373 12.3473 45.62C12.1207 45.348 11.962 45.144 11.8713 45.008C11.7807 44.872 11.826 44.668 12.0073 44.396C12.234 44.0787 12.4153 43.8747 12.5513 43.784C12.7327 43.6933 13.0047 43.716 13.3673 43.852C13.7753 43.9427 14.0473 44.0787 14.1833 44.26C14.3193 44.396 14.3873 44.6453 14.3873 45.008ZM5.47934 44.056L5.75134 44.736L5.13934 45.28L4.59534 44.668L4.73134 43.988L5.47934 44.056ZM17.0393 44.668L16.4273 45.212H15.5433L15.7473 44.26L16.4953 43.988L17.0393 44.668ZM10.4433 44.6C10.67 45.008 10.7153 45.3253 10.5793 45.552C10.4887 45.7333 10.3073 46.0053 10.0353 46.368C9.71801 46.7307 9.46868 47.0253 9.28734 47.252C9.10601 47.4333 8.78868 47.4333 8.33534 47.252C7.92734 47.116 7.72334 46.912 7.72334 46.64C7.76868 46.3227 7.81401 45.9373 7.85934 45.484C7.85934 45.1667 7.92734 44.9627 8.06334 44.872C8.19934 44.736 8.42601 44.6453 8.74334 44.6C9.15134 44.464 9.46868 44.3507 9.69534 44.26C9.96734 44.1693 10.2167 44.2827 10.4433 44.6ZM3.43934 45.416L3.71134 46.096L3.03134 46.436L2.35134 46.028L2.75934 45.28L3.43934 45.416ZM5.95534 46.164L6.02334 46.776L5.47934 46.912L5.13934 46.572L5.34334 46.028L5.95534 46.164ZM16.9033 46.232L16.8353 46.98H16.0873L15.8153 46.436L16.2913 46.028L16.9033 46.232ZM14.9993 46.844L15.3393 47.456L14.6593 47.592L14.2513 47.184L14.4553 46.572L14.9993 46.844ZM12.1433 46.776L12.3473 47.252L12.2113 47.66L11.6673 47.592L11.7353 47.048L12.1433 46.776Z" fill="#336A19"/>
</svg>
