<svg width="30" height="30" viewBox="0 0 30 30" fill="none" xmlns="http://www.w3.org/2000/svg">
<path d="M14.997 18.0193C11.5906 18.0193 8.80804 15.6064 8.80804 12.6218C8.80804 9.63717 11.5906 7.23828 14.997 7.23828C18.4033 7.23828 21.1859 9.65111 21.1859 12.6357C21.1859 15.6204 18.4033 18.0193 14.997 18.0193ZM14.997 9.33033C12.918 9.33033 11.2068 10.8087 11.2068 12.6357C11.2068 14.4628 12.902 15.9412 14.997 15.9412C17.0919 15.9412 18.7871 14.4628 18.7871 12.6357C18.7871 10.8087 17.0759 9.33033 14.997 9.33033Z" fill="#292D32"/>
<path d="M14.9951 30C12.6283 30 10.2455 29.219 8.39039 27.6709C3.67277 23.7099 -1.5406 17.3919 0.42641 9.87448C2.20151 3.05439 9.03006 0 14.9951 0H15.0111C20.976 0 27.8046 3.05439 29.5797 9.88842C31.5307 17.4059 26.3173 23.7099 21.5997 27.6709C19.7447 29.219 17.3619 30 14.9951 30ZM14.9951 2.09205C10.3414 2.09205 4.36042 4.25384 2.77722 10.3347C1.0501 16.9038 5.7837 22.5662 10.0695 26.1506C12.8362 28.4798 17.17 28.4798 19.9366 26.1506C24.2064 22.5662 28.94 16.9038 27.2449 10.3347C25.6457 4.25384 19.6487 2.09205 14.9951 2.09205Z" fill="#292D32"/>
</svg>
