<svg width="25" height="28" viewBox="0 0 25 28" fill="none" xmlns="http://www.w3.org/2000/svg">
<path d="M11.875 26.3608C5.32926 26.3608 0 20.6461 0 13.6269C0 6.60773 5.32926 0.893005 11.875 0.893005C18.4207 0.893005 23.75 6.60773 23.75 13.6269C23.75 20.6461 18.4207 26.3608 11.875 26.3608ZM11.875 2.7565C6.27926 2.7565 1.7378 7.63886 1.7378 13.6269C1.7378 19.6149 6.27926 24.4973 11.875 24.4973C17.4707 24.4973 22.0122 19.6149 22.0122 13.6269C22.0122 7.63886 17.4707 2.7565 11.875 2.7565Z" fill="#292D32"/>
<path d="M24.1306 27.7011C23.9097 27.7011 23.6887 27.6138 23.5143 27.4268L21.1885 24.933C20.8512 24.5714 20.8512 23.9729 21.1885 23.6113C21.5257 23.2497 22.0839 23.2497 22.4212 23.6113L24.747 26.1051C25.0842 26.4667 25.0842 27.0652 24.747 27.4268C24.5725 27.6138 24.3516 27.7011 24.1306 27.7011Z" fill="#292D32"/>
</svg>
