<svg width="30" height="30" viewBox="0 0 30 30" fill="none" xmlns="http://www.w3.org/2000/svg">
<path d="M28.7838 27.75H1.21622C0.551351 27.75 0 28.26 0 28.875C0 29.49 0.551351 30 1.21622 30H28.7838C29.4486 30 30 29.49 30 28.875C30 28.26 29.4486 27.75 28.7838 27.75Z" fill="#292D32"/>
<path d="M3.64865 17.655C4.31352 17.655 4.86487 17.145 4.86487 16.53V3.84L25.4919 22.92C25.7351 23.145 26.0432 23.25 26.3514 23.25C26.6595 23.25 26.9676 23.145 27.2108 22.92C27.6811 22.485 27.6811 21.765 27.2108 21.33L6.58379 2.25H20.3027C20.9676 2.25 21.5189 1.74 21.5189 1.125C21.5189 0.51 20.9676 0 20.3027 0H3.64865C3.48649 0 3.34054 0.0299999 3.17838 0.0899999C2.88649 0.195 2.64324 0.42 2.52973 0.69C2.46487 0.84 2.43243 0.975 2.43243 1.125V16.53C2.43243 17.145 2.98379 17.655 3.64865 17.655Z" fill="#292D32"/>
</svg>
