<svg width="26" height="28" viewBox="0 0 26 28" fill="none" xmlns="http://www.w3.org/2000/svg">
<path d="M20.2746 21.4667H7.61505C6.43824 21.4667 5.30898 20.943 4.51256 20.0328C3.71614 19.1226 3.31199 17.9006 3.40709 16.6662L4.3937 4.24714C4.42936 3.86061 4.2986 3.48655 4.04897 3.19977C3.79935 2.91298 3.45464 2.76334 3.08614 2.76334H1.0297C0.542339 2.76334 0.138184 2.3394 0.138184 1.82817C0.138184 1.31695 0.542339 0.893005 1.0297 0.893005H3.09804C3.96579 0.893005 4.78596 1.27954 5.36842 1.94039C5.68937 2.31446 5.92712 2.75087 6.05787 3.23716H20.9046C22.1052 3.23716 23.2107 3.73592 24.019 4.63368C24.8154 5.54391 25.2196 6.72846 25.1245 7.98781L24.4826 17.3395C24.3519 19.6213 22.4499 21.4667 20.2746 21.4667ZM6.11731 5.09503L5.19013 16.8158C5.13069 17.539 5.35654 18.2248 5.82014 18.761C6.28373 19.2971 6.92561 19.5839 7.61505 19.5839H20.2746C21.5109 19.5839 22.6283 18.4866 22.7233 17.1899L23.3652 7.8382C23.4128 7.10253 23.1869 6.40428 22.7233 5.89305C22.2598 5.36936 21.6179 5.08255 20.9165 5.08255H6.11731V5.09503Z" fill="#292D32"/>
<path d="M17.9685 27.7011C16.6609 27.7011 15.5911 26.5789 15.5911 25.2073C15.5911 23.8357 16.6609 22.7135 17.9685 22.7135C19.276 22.7135 20.3458 23.8357 20.3458 25.2073C20.3458 26.5789 19.276 27.7011 17.9685 27.7011ZM17.9685 24.5839C17.6356 24.5839 17.3741 24.8582 17.3741 25.2073C17.3741 25.5564 17.6356 25.8308 17.9685 25.8308C18.3013 25.8308 18.5628 25.5564 18.5628 25.2073C18.5628 24.8582 18.3013 24.5839 17.9685 24.5839Z" fill="#292D32"/>
<path d="M8.45893 27.7011C7.15137 27.7011 6.08154 26.5789 6.08154 25.2073C6.08154 23.8357 7.15137 22.7135 8.45893 22.7135C9.76649 22.7135 10.8363 23.8357 10.8363 25.2073C10.8363 26.5789 9.76649 27.7011 8.45893 27.7011ZM8.45893 24.5839C8.12609 24.5839 7.86458 24.8582 7.86458 25.2073C7.86458 25.5564 8.12609 25.8308 8.45893 25.8308C8.79176 25.8308 9.05328 25.5564 9.05328 25.2073C9.05328 24.8582 8.79176 24.5839 8.45893 24.5839Z" fill="#292D32"/>
<path d="M23.6148 10.2447H9.3505C8.86314 10.2447 8.45898 9.82072 8.45898 9.3095C8.45898 8.79827 8.86314 8.37433 9.3505 8.37433H23.6148C24.1022 8.37433 24.5063 8.79827 24.5063 9.3095C24.5063 9.82072 24.1022 10.2447 23.6148 10.2447Z" fill="#292D32"/>
</svg>
