<svg width="141" height="201" viewBox="0 0 141 201" fill="none" xmlns="http://www.w3.org/2000/svg">
<path d="M4.96563 201C17.3656 188.4 29.3656 176.2 40.9656 164.4C52.7656 152.6 63.2656 141.2 72.4656 130.2C81.6656 119 88.9656 108.1 94.3656 97.5C99.7656 86.9 102.466 76.7 102.466 66.9C102.466 58.7 100.766 52 97.3656 46.8C93.9656 41.4 89.4656 37.5 83.8656 35.1C78.4656 32.5 72.6656 31.2 66.4656 31.2C58.0656 31.2 51.2656 32.9 46.0656 36.3C41.0656 39.7 37.3656 43.9 34.9656 48.9C32.5656 53.7 31.3656 58.4 31.3656 63C31.3656 69.6 32.3656 75.5 34.3656 80.7C36.3656 85.9 39.2656 90.4 43.0656 94.2L23.5656 111.9C18.7656 108.9 14.6656 104.6 11.2656 99C7.86563 93.2 5.26563 87.2 3.46563 81C1.66563 74.6 0.765626 68.9 0.765626 63.9C0.765626 52.9 3.46563 42.7 8.86563 33.3C14.2656 23.7 22.2656 15.9 32.8656 9.89999C43.4656 3.89999 56.3656 0.899983 71.5656 0.899983C84.3656 0.899983 95.4656 3.89999 104.866 9.89999C114.266 15.7 121.566 23.4 126.766 33C132.166 42.6 134.866 53.1 134.866 64.5C134.866 77.5 131.566 90.2 124.966 102.6C118.366 115 110.066 127.2 100.066 139.2C90.0656 151.2 79.8656 163.2 69.4656 175.2L55.3656 170.7H140.866V201H4.96563Z" fill="#8D8D8D" fill-opacity="0.38"/>
</svg>
