<svg width="124" height="201" viewBox="0 0 124 201" fill="none" xmlns="http://www.w3.org/2000/svg">
<path d="M117.338 0.299988L65.7379 85.5L47.4379 76.5C52.6379 74.1 58.4379 72.9 64.8379 72.9C72.2379 72.7 79.4379 73.6 86.4379 75.6C93.4379 77.4 99.7379 80.6 105.338 85.2C110.938 89.8 115.338 96 118.538 103.8C121.938 111.4 123.638 120.9 123.638 132.3C123.638 146.3 120.438 158.4 114.038 168.6C107.638 178.8 99.1379 186.7 88.5379 192.3C77.9379 197.7 66.2379 200.4 53.4379 200.4C43.8379 200.4 34.1379 198.4 24.3379 194.4C14.7379 190.4 6.83789 185.2 0.637891 178.8L16.5379 153C20.1379 157.4 25.2379 161.4 31.8379 165C38.4379 168.4 45.4379 170.1 52.8379 170.1C63.2379 170.1 72.2379 166.6 79.8379 159.6C87.4379 152.4 91.2379 142.7 91.2379 130.5C91.2379 119.5 88.0379 110.8 81.6379 104.4C75.2379 98 66.4379 94.8 55.2379 94.8C49.4379 94.8 44.6379 95.2 40.8379 96C37.0379 96.8 33.5379 97.8 30.3379 99L29.1379 97.8L74.1379 26.4L83.7379 30.6H12.9379V0.299988H117.338Z" fill="#8D8D8D" fill-opacity="0.38"/>
</svg>
