<svg width="122" height="201" viewBox="0 0 122 201" fill="none" xmlns="http://www.w3.org/2000/svg">
<path d="M55.8309 200.4C45.2309 200.4 34.9309 198.4 24.9309 194.4C14.9309 190.4 6.93086 185.5 0.930861 179.7L17.4309 155.1C21.4309 159.5 26.7309 163.2 33.3309 166.2C40.1309 169 46.8309 170.4 53.4309 170.4C63.8309 170.4 72.3309 167.1 78.9309 160.5C85.7309 153.7 89.1309 144.9 89.1309 134.1C89.1309 122.7 85.9309 113.3 79.5309 105.9C73.3309 98.3 64.0309 94.5 51.6309 94.5C44.8309 94.5 38.4309 95.5 32.4309 97.5C26.6309 99.3 20.4309 102.1 13.8309 105.9H13.5309V0.299988H108.631V30.6H40.8309V78L36.6309 71.4C40.0309 70.4 43.6309 69.6 47.4309 69C51.4309 68.4 55.3309 68.1 59.1309 68.1C72.7309 68.1 84.1309 71.1 93.3309 77.1C102.731 83.1 109.731 91 114.331 100.8C119.131 110.6 121.531 121.4 121.531 133.2C121.531 145.8 118.631 157.2 112.831 167.4C107.231 177.6 99.4309 185.7 89.4309 191.7C79.6309 197.5 68.4309 200.4 55.8309 200.4Z" fill="#8D8D8D" fill-opacity="0.38"/>
</svg>
